<?xml version="1.0" standalone="no"?>
<!DOCTYPE svg PUBLIC "-//W3C//DTD SVG 20010904//EN"
 "http://www.w3.org/TR/2001/REC-SVG-20010904/DTD/svg10.dtd">
<svg version="1.0" xmlns="http://www.w3.org/2000/svg"
 width="512.000000pt" height="512.000000pt" viewBox="0 0 512.000000 512.000000"
 preserveAspectRatio="xMidYMid meet">

<g transform="translate(0.000000,512.000000) scale(0.100000,-0.100000)"
fill="#000000" stroke="none">
<path d="M3099 4777 c-14 -7 -378 -239 -808 -516 l-781 -505 0 -1177 0 -1178
794 -530 c551 -368 805 -532 831 -537 60 -11 123 20 152 75 l23 44 0 2109 0
2109 -21 40 c-32 65 -124 96 -190 66z"/>
<path d="M4479 3937 c-62 -41 -86 -125 -54 -188 9 -16 45 -74 80 -128 36 -54
92 -155 125 -222 295 -613 244 -1303 -141 -1884 -57 -87 -73 -119 -76 -155
-10 -115 107 -194 212 -144 81 38 300 425 384 679 146 442 146 928 0 1368 -79
240 -302 642 -378 681 -45 23 -112 20 -152 -7z"/>
<path d="M76 3607 c-21 -12 -47 -38 -57 -57 -18 -33 -19 -78 -19 -968 0 -915
0 -934 20 -972 13 -26 34 -47 60 -60 38 -19 58 -20 585 -20 l545 0 0 1050 0
1050 -547 0 -548 0 -39 -23z"/>
<path d="M3992 3613 c-52 -25 -77 -69 -77 -133 0 -51 5 -62 64 -150 172 -259
251 -525 238 -800 -13 -257 -80 -457 -235 -695 -76 -118 -86 -158 -53 -224 16
-31 34 -48 64 -62 54 -24 81 -24 132 1 34 16 55 41 112 128 154 234 234 444
268 700 33 249 5 504 -81 744 -67 185 -230 455 -295 489 -46 23 -93 24 -137 2z"/>
<path d="M3584 3189 c-35 -10 -82 -53 -95 -87 -19 -48 -10 -93 35 -175 69
-127 91 -210 91 -347 0 -137 -22 -220 -91 -347 -50 -93 -55 -135 -23 -193 26
-47 68 -72 122 -72 78 -2 126 40 191 169 61 122 106 308 106 443 0 95 -26 238
-60 331 -31 84 -90 200 -118 233 -36 40 -107 60 -158 45z"/>
</g>
</svg>
